<svg xmlns="http://www.w3.org/2000/svg" width="142" height="28" viewBox="0 0 142 28" fill="none"><g clip-path="url(#clip0_2280_3100)"><path d="M49.1044 4.64347H44.4609V7.00497C42.5021 5.52344 40.0661 4.64347 37.4212 4.64347C30.968 4.64347 25.7429 9.87358 25.7429 16.3217C25.7429 22.7699 30.973 28 37.4212 28C40.0661 28 42.5021 27.12 44.4609 25.6385V28H52.3359V23.3565H49.0994V4.64347H49.1044ZM37.4261 23.6697C33.3693 23.6697 30.0781 20.3786 30.0781 16.3217C30.0781 12.2649 33.3693 8.97372 37.4261 8.97372C41.483 8.97372 44.7741 12.2649 44.7741 16.3217C44.7741 20.3786 41.483 23.6697 37.4261 23.6697ZM11.6783 23.6697C7.62145 23.6697 4.33026 20.3786 4.33026 16.3217C4.33026 12.2649 7.62145 8.97372 11.6783 8.97372C14.343 8.97372 16.6697 10.3956 17.9574 12.5185H22.0192V4.64347H17.9872V6.50284C16.1676 5.32955 14.005 4.64347 11.6783 4.64347C5.23011 4.64347 0 9.86861 0 16.3217C0 22.7749 5.23011 28 11.6783 28C16.7543 28 21.0646 24.7585 22.6754 20.2393L18.5938 18.7876C17.5795 21.6314 14.875 23.6697 11.6783 23.6697ZM101.654 4.64347V9.28693H106.298V23.3615H101.654V28.005H115.58V23.3615H110.936V9.28196H115.58V4.64347H101.654ZM129.967 4.64347C123.514 4.64347 118.289 9.87358 118.289 16.3217C118.289 22.7699 123.519 28 129.967 28C136.415 28 141.646 22.7699 141.646 16.3217C141.646 9.87358 136.415 4.64347 129.967 4.64347ZM129.967 23.6697C125.911 23.6697 122.619 20.3786 122.619 16.3217C122.619 12.2649 125.911 8.97372 129.967 8.97372C134.024 8.97372 137.315 12.2649 137.315 16.3217C137.315 20.3786 134.024 23.6697 129.967 23.6697ZM85.2777 28H89.9212V9.28196H97.6321V4.64347H85.2777V28ZM70.0796 4.63849C67.4347 4.63849 64.9986 5.51847 63.0398 7V0H55.1648V4.64347H58.4013V28H63.0447V25.6385C65.0035 27.12 67.4396 28 70.0845 28C76.5376 28 81.7628 22.7699 81.7628 16.3217C81.7628 9.87358 76.5327 4.64347 70.0845 4.64347M70.0845 23.6697C66.0277 23.6697 62.7365 20.3786 62.7365 16.3217C62.7365 12.2649 66.0277 8.97372 70.0845 8.97372C74.1413 8.97372 77.4325 12.2649 77.4325 16.3217C77.4325 20.3786 74.1413 23.6697 70.0845 23.6697Z" fill="white"></path></g><defs><clipPath id="clip0_2280_3100"><rect width="141.651" height="28" fill="white"></rect></clipPath></defs></svg>